<svg xmlns="http://www.w3.org/2000/svg" width="18" height="18" fill="none"><g clip-path="url(#a)"><path stroke="#171B24" stroke-linecap="round" stroke-linejoin="round" stroke-miterlimit="10" stroke-width="1.5" d="m11.64 10.853-1.283 1.604a13.54 13.54 0 0 1-4.814-4.813l1.605-1.283a1.09 1.09 0 0 0 .315-1.294L6 1.773a1.09 1.09 0 0 0-1.271-.613l-2.784.722a1.097 1.097 0 0 0-.81 1.212 16.18 16.18 0 0 0 13.771 13.771 1.097 1.097 0 0 0 1.212-.81l.722-2.784a1.09 1.09 0 0 0-.613-1.27l-3.293-1.463a1.09 1.09 0 0 0-1.294.315"/></g><defs><clipPath id="a"><path fill="#fff" d="M0 0h18v18H0z"/></clipPath></defs></svg>